<?xml version="1.0" standalone="no"?><!DOCTYPE svg PUBLIC "-//W3C//DTD SVG 1.1//EN" "http://www.w3.org/Graphics/SVG/1.1/DTD/svg11.dtd"><svg t="1743420186670" class="icon" viewBox="0 0 1024 1024" version="1.1" xmlns="http://www.w3.org/2000/svg" p-id="3741" data-darkreader-inline-fill="" xmlns:xlink="http://www.w3.org/1999/xlink" width="200" height="200"><path d="M853.333333 428.8l-5.973333 37.973333A256 256 0 0 1 592.64 682.666667h-48.64a32 32 0 0 0-31.573333 26.88l-32 202.24a32.426667 32.426667 0 0 1-32 26.88H371.2a20.906667 20.906667 0 0 1-20.906667-24.746667l48.213334-305.493333a32 32 0 0 1 29.866666-21.76h72.533334a330.666667 330.666667 0 0 0 324.266666-267.093334 147.2 147.2 0 0 1 28.16 109.226667zM500.906667 512a256 256 0 0 0 253.013333-215.893333l5.973333-37.973334a149.333333 149.333333 0 0 0-147.626666-170.666666h-298.666667a42.666667 42.666667 0 0 0-42.666667 35.84L170.666667 743.253333a20.906667 20.906667 0 0 0 21.333333 24.746667h77.226667a31.573333 31.573333 0 0 0 31.573333-26.88l32.426667-202.24a31.573333 31.573333 0 0 1 31.573333-26.88z" p-id="3742"></path></svg>