<?xml version="1.0" standalone="no"?><!DOCTYPE svg PUBLIC "-//W3C//DTD SVG 1.1//EN" "http://www.w3.org/Graphics/SVG/1.1/DTD/svg11.dtd"><svg t="1743421461501" class="icon" viewBox="0 0 1024 1024" version="1.1" xmlns="http://www.w3.org/2000/svg" p-id="4053" xmlns:xlink="http://www.w3.org/1999/xlink" width="200" height="200"><path d="M512 16C238.066 16 16 238.066 16 512s222.066 496 496 496 496-222.066 496-496S785.934 16 512 16z m229.904 337.32c-7.464 78.43-39.762 268.756-56.2 356.6-6.952 37.168-20.644 49.632-33.896 50.85-28.8 2.652-50.676-19.034-78.574-37.322-43.654-28.616-68.316-46.43-110.692-74.354-48.97-32.27-17.224-50 10.684-79 7.304-7.586 134.214-123.02 136.67-133.492 0.306-1.31 0.6-6.2-2.308-8.768s-7.18-1.698-10.27-1q-6.566 1.492-209.216 138.284-29.69 20.388-53.788 19.868c-17.71-0.382-51.776-10.012-77.102-18.246-31.062-10.096-55.75-15.434-53.6-32.582q1.68-13.4 36.9-27.4 216.892-94.496 289.256-124.6c137.744-57.294 166.366-67.246 185.022-67.578 4.104-0.068 13.278 0.948 19.22 5.77a20.904 20.904 0 0 1 7.06 13.432 87.53 87.53 0 0 1 0.834 19.538z" p-id="4054" fill="#000000"></path></svg>